<?xml version="1.0" standalone="no"?>
<!DOCTYPE svg PUBLIC "-//W3C//DTD SVG 20010904//EN"
 "http://www.w3.org/TR/2001/REC-SVG-20010904/DTD/svg10.dtd">
<svg version="1.0" xmlns="http://www.w3.org/2000/svg"
 width="512.000000pt" height="512.000000pt" viewBox="0 0 512.000000 512.000000"
 preserveAspectRatio="xMidYMid meet">
<metadata>
Created by potrace 1.11, written by Peter Selinger 2001-2013
</metadata>
<g transform="translate(0.000000,512.000000) scale(0.100000,-0.100000)"
fill="#000000" stroke="none">
<path d="M2379 5116 c-2 -2 -35 -6 -74 -10 -38 -3 -97 -10 -130 -16 -33 -6
-76 -13 -95 -16 -106 -17 -413 -105 -434 -125 -6 -5 -16 -9 -23 -9 -15 0 -131
-52 -228 -101 -322 -165 -620 -410 -854 -705 -69 -87 -166 -236 -230 -353 -34
-62 -61 -114 -61 -116 0 -2 -15 -36 -34 -77 -54 -119 -134 -356 -150 -448 -2
-14 -7 -36 -10 -50 -44 -190 -65 -557 -44 -780 21 -217 83 -475 165 -685 35
-89 122 -270 159 -332 10 -17 36 -60 57 -95 178 -297 499 -616 820 -814 278
-172 645 -310 936 -350 20 -3 79 -11 131 -18 88 -12 496 -14 560 -2 14 2 45 7
70 10 25 4 92 16 150 27 58 12 115 23 128 25 38 7 320 103 370 125 481 216
859 531 1135 945 198 299 343 668 392 1004 3 19 7 44 10 55 29 141 27 537 -4
740 -130 854 -704 1608 -1486 1951 -44 20 -89 39 -100 44 -86 38 -365 119
-465 134 -19 3 -44 8 -56 10 -12 2 -45 7 -74 11 -29 4 -62 9 -74 12 -23 5
-452 13 -457 9z m506 -521 c307 -48 429 -83 620 -177 289 -142 519 -381 670
-693 76 -157 110 -275 130 -442 l6 -53 -409 0 -409 0 -33 93 c-36 104 -99 235
-138 287 -41 55 -122 130 -182 169 -30 19 -57 34 -60 34 -3 -1 -10 3 -16 8
-15 12 -115 46 -194 66 -106 26 -335 27 -450 2 -351 -75 -600 -363 -705 -814
-13 -55 -26 -125 -30 -155 -4 -30 -10 -68 -12 -85 -9 -62 -11 -503 -3 -570 52
-431 183 -696 435 -883 156 -115 312 -163 530 -163 55 1 111 3 125 5 14 3 41
7 60 10 55 8 170 46 225 73 76 39 124 75 189 141 97 99 158 209 221 395 18 54
36 101 38 104 8 7 796 8 803 0 3 -3 1 -30 -6 -59 -6 -29 -13 -63 -16 -74 -2
-12 -16 -62 -30 -110 -131 -454 -431 -826 -826 -1025 -63 -32 -296 -119 -313
-118 -3 0 -18 -2 -33 -5 -28 -6 -47 -9 -147 -28 -69 -12 -435 -17 -540 -6
-150 16 -323 56 -462 108 -386 145 -695 433 -881 821 -45 94 -107 251 -117
296 -2 10 -11 43 -19 74 -16 60 -52 238 -60 304 -28 204 -28 642 -2 833 13 91
19 125 37 212 39 198 126 433 221 599 79 139 157 240 278 361 259 260 543 401
925 460 96 14 163 17 330 15 116 -2 228 -7 250 -10z"/>
</g>
</svg>
