<?xml version="1.0" standalone="no"?>
<!DOCTYPE svg PUBLIC "-//W3C//DTD SVG 20010904//EN"
 "http://www.w3.org/TR/2001/REC-SVG-20010904/DTD/svg10.dtd">
<svg version="1.0" xmlns="http://www.w3.org/2000/svg"
 width="512.000000pt" height="512.000000pt" viewBox="0 0 512.000000 512.000000"
 preserveAspectRatio="xMidYMid meet">
<metadata>
Created by potrace 1.11, written by Peter Selinger 2001-2013
</metadata>
<g transform="translate(0.000000,512.000000) scale(0.100000,-0.100000)"
fill="#000000" stroke="none">
<path d="M0 2560 l0 -2560 2560 0 2560 0 0 2560 0 2560 -2560 0 -2560 0 0
-2560z m2950 2320 c595 -76 1034 -330 1320 -764 154 -232 249 -485 274 -724
l7 -62 -467 2 -466 3 -37 105 c-73 207 -133 310 -238 411 -115 111 -239 178
-405 220 -105 26 -368 37 -477 20 -416 -65 -722 -384 -851 -885 -104 -407
-100 -985 12 -1360 115 -392 374 -668 723 -772 120 -36 370 -45 508 -20 309
58 517 221 652 510 41 88 105 265 105 293 0 11 85 13 465 13 256 0 465 -3 465
-6 0 -29 -60 -263 -92 -359 -177 -531 -562 -950 -1053 -1145 -98 -39 -273 -84
-410 -107 -150 -24 -530 -24 -696 0 -547 81 -959 317 -1262 725 -314 421 -464
991 -444 1677 21 690 193 1197 544 1605 307 358 731 574 1233 629 104 12 474
6 590 -9z"/>
</g>
</svg>
